<?xml version="1.0" encoding="UTF-8"?>
<svg id="Layer_1" data-name="Layer 1" xmlns="http://www.w3.org/2000/svg" viewBox="0 0 252 141.62">
  <defs>
    <style>
      .cls-1 {
        fill: #fff;
        stroke-width: 0px;
      }
    </style>
  </defs>
  <g>
    <polygon class="cls-1" points="126 62.25 101.24 105.13 66.03 105.13 108.39 31.74 126 62.25"/>
    <polygon class="cls-1" points="184.02 105.13 150.76 105.13 126 62.25 142.63 33.42 184.02 105.13"/>
    <circle class="cls-1" cx="126" cy="15.31" r="12.38"/>
    <polygon class="cls-1" points="188.83 2.93 160.24 2.93 149.78 21.05 198.32 105.13 247.83 105.13 188.83 2.93"/>
    <polygon class="cls-1" points="63.17 2.93 4.17 105.13 51.73 105.13 101.24 19.36 91.76 2.93 63.17 2.93"/>
  </g>
  <path class="cls-1" d="m77.26,110.13h6.02c.35.96.82,2.21,1.39,3.75.57,1.54,1.21,3.25,1.93,5.12.71,1.87,1.45,3.79,2.21,5.76.76,1.97,1.5,3.88,2.21,5.74.71,1.86,1.37,3.54,1.97,5.06.6,1.52,1.09,2.74,1.48,3.67h-4.3l-5.29-14.59c-.6-1.72-1.2-3.42-1.8-5.1-.6-1.68-1.16-3.24-1.68-4.69-.52-1.45-.97-2.68-1.35-3.69l1.15,2.66h-2.21l1.39-2.66c-.38,1.01-.85,2.25-1.39,3.71-.55,1.46-1.13,3.03-1.74,4.71-.61,1.68-1.25,3.38-1.91,5.1l-5.49,14.54h-4.14c.38-.93.88-2.15,1.5-3.67.61-1.52,1.29-3.2,2.03-5.06.74-1.86,1.5-3.77,2.29-5.74.79-1.97,1.56-3.88,2.29-5.76.74-1.87,1.41-3.58,2.01-5.12.6-1.54,1.08-2.79,1.43-3.75Zm-6.02,22.25v-3.36h17.78v3.36h-17.78Z"/>
  <path class="cls-1" d="m121.96,133.98v-21.37c0-.86-.01-1.69-.04-2.48h3.93c-.03.79-.04,1.63-.04,2.5v23.31c0,.6,0,1.17.02,1.7.01.53.02,1.06.02,1.58h-3.93c.03-.52.04-1.04.04-1.58v-3.67Z"/>
  <path class="cls-1" d="m151.37,139.22c.03-.98.04-1.85.04-2.6v-23.99c0-.87-.01-1.71-.04-2.5h7.42l5.16,13.56c.49,1.31.98,2.62,1.48,3.91.49,1.3.96,2.55,1.39,3.75.44,1.2.84,2.31,1.21,3.32.37,1.01.69,1.9.96,2.66l-2.25-1.8h2.46l-2.25,1.8c.3-.76.64-1.65,1.02-2.66.38-1.01.8-2.12,1.25-3.32.45-1.2.93-2.46,1.43-3.77.5-1.31,1-2.62,1.5-3.93l5.12-13.52h6.76c-.03.77-.04,1.56-.04,2.4v24.15c0,.87.01,1.72.04,2.54h-3.93c.03-1.09.04-2.37.04-3.83v-10.45c0-.83,0-1.73.02-2.7.01-.97.03-1.96.04-2.97.01-1.01.03-1.99.04-2.93s.03-1.82.04-2.62c.01-.81.02-1.48.02-2.03l1.15,2.05h-3.48l2.21-2.05c-.36.85-.72,1.79-1.11,2.83-.38,1.04-.79,2.13-1.21,3.28-.42,1.15-.85,2.32-1.29,3.52-.44,1.2-.89,2.42-1.35,3.65l-5.29,14.26h-4.02l-5.49-14.18c-.49-1.23-.98-2.46-1.45-3.69-.48-1.23-.94-2.42-1.37-3.56-.44-1.15-.85-2.24-1.25-3.28-.4-1.04-.76-1.98-1.09-2.83l1.39,2.05h-2.13l.57-2.05c0,.52,0,1.13.02,1.82.01.7.03,1.46.04,2.29.01.83.03,1.71.04,2.64.01.93.03,1.9.04,2.91.01,1.01.02,2.04.02,3.07v6.66c0,1.41,0,2.84.02,4.3.01,1.46.02,2.74.02,3.83h-3.93Z"/>
</svg>